<?xml version="1.0" encoding="UTF-8" standalone="no"?>
<!-- Created with Inkscape (http://www.inkscape.org/) -->

<svg
   width="96.000008mm"
   height="96mm"
   viewBox="0 0 96.000008 96"
   version="1.1"
   id="svg1"
   xmlns="http://www.w3.org/2000/svg"
   xmlns:svg="http://www.w3.org/2000/svg">
  <defs
     id="defs1" />
  <g
     id="layer1"
     transform="translate(-41.668107,-51.947469)">
    <rect
       style="fill:#000000;stroke-width:105.833"
       id="rect1"
       width="96"
       height="96"
       x="41.66811"
       y="51.947468" />
    <path
       style="fill:#ff0000;fill-rule:evenodd;stroke:#000000;stroke-width:0.264583"
       id="path1"
       d="m 58.922745,69.752785 c 1.10441,1.536967 -1.526925,2.247008 -2.554541,1.835601 -2.784777,-1.114885 -2.643167,-4.892504 -1.116663,-6.944683 2.730558,-3.670868 8.192691,-3.258804 11.334827,-0.397723 4.61121,4.19875 3.900889,11.54061 -0.321216,15.724969 -5.627402,5.577091 -14.905864,4.554735 -20.115112,-1.040156 -6.555307,-7.040599 -5.214766,-18.279472 1.759095,-24.505254 8.446279,-7.540256 21.657807,-5.878395 28.895397,2.478034 8.52925,9.847762 6.544286,25.03909 -3.196974,33.28554 C 62.360888,99.709966 45.185217,97.4008 35.931876,86.2732 25.417642,73.629313 28.051732,54.466225 40.566728,44.207375 54.606662,32.698495 75.759343,35.65801 87.022696,49.561166 99.527153,64.996305 96.241854,88.140179 80.949965,100.40728"
       transform="matrix(-0.40835434,-1.331676,1.331676,-0.40835434,24.119615,211.01466)" />
  </g>
</svg>
